<svg width="24" height="25" viewBox="0 0 24 25" fill="none" xmlns="http://www.w3.org/2000/svg">
<path d="M21.1375 22.4999H2.8625C2.38399 22.4999 2 22.113 2 21.6374V3.36285C2 2.88435 2.38694 2.50037 2.8625 2.50037H21.1375C21.616 2.50037 22 2.8873 22 3.36285V21.6374C22 22.1159 21.6131 22.4999 21.1375 22.4999Z" fill="#2C85D8"/>
<mask id="mask0_759_365" style="mask-type:luminance" maskUnits="userSpaceOnUse" x="2" y="2" width="20" height="21">
<path d="M21.1375 22.4999H2.8625C2.38399 22.4999 2 22.113 2 21.6374V3.36285C2 2.88435 2.38694 2.50037 2.8625 2.50037H21.1375C21.616 2.50037 22 2.8873 22 3.36285V21.6374C22 22.1159 21.6131 22.4999 21.1375 22.4999Z" fill="white"/>
</mask>
<g mask="url(#mask0_759_365)">
<path d="M10.4155 16.873C10.1792 16.873 9.95179 16.7785 9.78342 16.6101L6.30388 13.1306L6.28911 13.1129L6.27434 13.0952L6.25957 13.0775L6.2448 13.0597L6.23003 13.042L6.21526 13.0243L6.20345 13.0066L6.19163 12.9889L6.17982 12.9711L6.168 12.9534L6.15619 12.9327L6.14437 12.9121L6.13551 12.8914L6.12665 12.8707L6.11779 12.85L6.10893 12.8294L6.10007 12.8087L6.09121 12.788L6.0853 12.7673L6.07939 12.7466L6.07348 12.726L6.06758 12.7053L6.06167 12.6846L6.05871 12.6639L6.05576 12.6433L6.05281 12.6226L6.04985 12.6019L6.0469 12.5812L6.04395 12.5606V12.5399V12.5192V12.4749V12.4542V12.4336L6.0469 12.4129L6.04985 12.3922L6.05281 12.3715L6.05576 12.3509L6.05871 12.3302L6.06167 12.3095L6.06758 12.2888L6.07348 12.2681L6.07939 12.2475L6.0853 12.2268L6.09121 12.2061L6.10007 12.1854L6.10893 12.1648L6.11779 12.1441L6.12665 12.1234L6.13551 12.1027L6.14437 12.0821L6.15619 12.0643L6.168 12.0466L6.17982 12.0289L6.19163 12.0112L6.20345 11.9935L6.21526 11.9757L6.23003 11.958L6.2448 11.9403L6.25957 11.9226L6.27434 11.9048L6.28911 11.8871L6.30388 11.8694L6.3216 11.8546L6.33932 11.8399L6.35705 11.8251L6.37477 11.8103L6.39249 11.7956L6.41021 11.7808L6.42794 11.769L6.44566 11.7572L6.46338 11.7453L6.4811 11.7335L6.49883 11.7217L6.51655 11.7099L6.53723 11.701L6.5579 11.6922L6.57858 11.6833L6.59925 11.6745L6.61993 11.6656L6.64061 11.6567L6.66128 11.6508L6.68196 11.6449L6.70264 11.639L6.72331 11.6331L6.74399 11.6272L6.76467 11.6242L6.78534 11.6213L6.80602 11.6183L6.8267 11.6154L6.84737 11.6124L6.86805 11.6095H6.88872H6.9094H6.93008H6.95075H6.97143H6.99211L7.01278 11.6124L7.03346 11.6154L7.05414 11.6183L7.07481 11.6213L7.09549 11.6242L7.11617 11.6272L7.13684 11.6331L7.15752 11.639L7.17819 11.6449L7.19887 11.6508L7.21955 11.6567L7.24022 11.6656L7.2609 11.6745L7.28158 11.6833L7.30225 11.6922L7.32293 11.701L7.34361 11.7099L7.36428 11.7217L7.38496 11.7335L7.40268 11.7453L7.4204 11.7572L7.43813 11.769L7.45585 11.7808L7.47357 11.7956L7.49129 11.8103L7.50902 11.8251L7.52674 11.8399L7.54446 11.8546L7.56218 11.8694L10.3919 14.699L16.3999 8.4047L16.4146 8.38698L16.4324 8.37221L16.4501 8.35744L16.4678 8.34267L16.4855 8.3279L16.5033 8.31313L16.521 8.30132L16.5387 8.28951L16.5564 8.27769L16.5741 8.26588L16.5919 8.25406L16.6096 8.24225L16.6303 8.23043L16.6509 8.22157L16.6716 8.21271L16.6923 8.20385L16.713 8.19499L16.7337 8.18613L16.7543 8.17726L16.775 8.17136L16.7957 8.16545L16.8164 8.15954L16.837 8.15363L16.8577 8.14773L16.8784 8.14477L16.8991 8.14182L16.9197 8.13887L16.9404 8.13591L16.9611 8.13296L16.9818 8.13H17.0024H17.0231H17.0438H17.0645H17.0852H17.1058L17.1265 8.13296L17.1472 8.13591L17.1679 8.13887L17.1885 8.14182L17.2092 8.14477L17.2299 8.14773L17.2506 8.15363L17.2712 8.15954L17.2919 8.16545L17.3126 8.17136L17.3333 8.17726L17.3539 8.18613L17.3746 8.19499L17.3953 8.20385L17.416 8.21271L17.4366 8.22157L17.4573 8.23043L17.478 8.24225L17.4987 8.25406L17.5164 8.26588L17.5341 8.27769L17.5518 8.28951L17.5696 8.30132L17.5873 8.31609L17.605 8.33086L17.6227 8.34563L17.6405 8.36039L17.6582 8.37516L17.6759 8.38993L17.6907 8.40765L17.7054 8.42538L17.7202 8.4431L17.735 8.46082L17.7498 8.47854L17.7616 8.49626L17.7734 8.51399L17.7852 8.53171L17.797 8.54943L17.8088 8.56715L17.8206 8.58488L17.8325 8.60555L17.8413 8.62623L17.8502 8.6469L17.859 8.66758L17.8679 8.68826L17.8768 8.70893L17.8856 8.72961L17.8915 8.75028L17.8974 8.77096L17.9093 8.81231L17.9152 8.83299L17.9181 8.85366L17.9211 8.87434L17.924 8.89501L17.927 8.91569L17.9299 8.93637L17.9329 8.95704V8.97772V8.99839V9.01907V9.03975V9.06042V9.0811L17.9299 9.10177L17.927 9.12245L17.924 9.14313L17.9211 9.1638L17.9181 9.18448L17.9152 9.20515L17.9093 9.22583L17.9033 9.24651L17.8974 9.26718L17.8915 9.28786L17.8856 9.30853L17.8768 9.32921L17.8679 9.34989L17.859 9.37056L17.8502 9.39124L17.8413 9.41191L17.8325 9.43259L17.8206 9.45327L17.8088 9.47099L17.797 9.48871L17.7852 9.50643L17.7734 9.52415L17.7616 9.54188L17.7468 9.5596L17.732 9.57732L17.7173 9.59504L17.7025 9.61277L17.6877 9.63049L11.0447 16.5894L11.0358 16.5983L11.027 16.6071L11.0181 16.616L11.0092 16.6249L11.0004 16.6337L10.9915 16.6426L10.9738 16.6574L10.9649 16.6633L10.9561 16.6692L10.9472 16.6751L10.9383 16.681L10.9295 16.6869L10.9206 16.6928L10.9029 16.7046L10.894 16.7105L10.8675 16.7282L10.8586 16.7341L10.8497 16.7401L10.832 16.7519L10.8232 16.7578L10.8143 16.7637L10.8054 16.7696L10.7966 16.7755L10.7759 16.7844L10.767 16.7903L10.7582 16.7932L10.7493 16.7962L10.7404 16.7991L10.7316 16.8021L10.7227 16.805L10.7139 16.808L10.702 16.8109L10.6902 16.8139L10.6784 16.8169L10.6666 16.8198L10.6548 16.8228L10.643 16.8257L10.6312 16.8287L10.6193 16.8316L10.6075 16.8346L10.5957 16.8375L10.5839 16.8405L10.5721 16.8434L10.5603 16.8464L10.5484 16.8493L10.5366 16.8523L10.5248 16.8553L10.513 16.8582H10.5012H10.4894H10.4776H10.4657H10.4539H10.4421H10.4303H10.4185H10.4067H10.3949C10.3919 16.8582 10.3889 16.8582 10.386 16.8582L10.383 16.8553L10.4155 16.873Z" fill="white"/>
</g>
</svg>
